# xmcd
#
# Track frame offsets:
#	150
#	21402
#	51554
#	61381
#	73158
#	115860
#	127812
#	150626
#	181253
#	200668
#	217145
#	231144
#	246686
#	259026
#	268628
#	278770
#	299255
#
# Disc length: 4296 seconds
#
# Revision: 0
# Processed by: cddbd v1.4PL0 Copyright (c) Steve Scherf et al.
# Submitted via: dBpowerAMP V4.0
#
DISCID=1210c611
DTITLE=WEST SIDE STORY - LE FILM
DYEAR=1999
DGENRE=Acapella
TTITLE0=Morceau N°1
TTITLE1=Morceau N°2
TTITLE2=Morceau N°3
TTITLE3=Morceau N°4
TTITLE4=Morceau N°5
TTITLE5=Morceau N°6
TTITLE6=Morceau N°7
TTITLE7=Morceau N°8
TTITLE8=Morceau N°9
TTITLE9=Morceau N°10
TTITLE10=Morceau N°11
TTITLE11=Morceau N°12
TTITLE12=Morceau N°13
TTITLE13=Morceau N°14
TTITLE14=Morceau N°15
TTITLE15=Morceau N°116
TTITLE16=Morceau N°17
EXTD=
EXTT0=
EXTT1=
EXTT2=
EXTT3=
EXTT4=
EXTT5=
EXTT6=
EXTT7=
EXTT8=
EXTT9=
EXTT10=
EXTT11=
EXTT12=
EXTT13=
EXTT14=
EXTT15=
EXTT16=
PLAYORDER=
